<svg id="Layer_1" data-name="Layer 1" xmlns="http://www.w3.org/2000/svg" viewBox="0 0 298.06 85.54"><defs><style>.cls-1{fill:#fff;}</style></defs><title>1</title><g id="_Group_" data-name="&lt;Group&gt;"><path d="M282.57,84.61H15.49A10.58,10.58,0,0,1,4.81,74.21V11.79A10.58,10.58,0,0,1,15.49,1.39H282.57a10.58,10.58,0,0,1,10.68,10.4V74.21A10.58,10.58,0,0,1,282.57,84.61Z"/></g><path class="cls-1" d="M65.45,42.3c-.07-7.22,5.91-10.73,6.18-10.89a13.28,13.28,0,0,0-10.47-5.66c-4.4-.46-8.67,2.63-10.92,2.63s-5.74-2.59-9.46-2.52A13.93,13.93,0,0,0,29.05,33C24,41.81,27.76,54.71,32.62,61.81c2.43,3.48,5.27,7.36,9,7.23s5-2.32,9.39-2.32,5.62,2.32,9.42,2.23,6.36-3.49,8.71-7a28.55,28.55,0,0,0,4-8.11A12.55,12.55,0,0,1,65.45,42.3"/><path class="cls-1" d="M58.29,21.08a12.77,12.77,0,0,0,2.92-9.15,13,13,0,0,0-8.41,4.35c-1.8,2.11-3.41,5.56-3,8.82,3.18.24,6.45-1.61,8.49-4"/><path class="cls-1" d="M118.15,68.53h-5.08l-2.79-8.75H100.6l-2.65,8.75H93l9.59-29.79h5.92Zm-8.71-12.42-2.52-7.78q-.4-1.19-1.5-5.61h-.09q-.44,1.9-1.41,5.61l-2.48,7.78Z"/><path class="cls-1" d="M142.77,57.53q0,5.48-3,8.66A8.73,8.73,0,0,1,133.17,69q-4.27,0-6.14-3V77.25h-4.77V54.12q0-3.44-.18-7.06h4.2l.27,3.41h.09a8.49,8.49,0,0,1,13.59-.84,11.87,11.87,0,0,1,2.54,7.91m-4.86.18a8.86,8.86,0,0,0-1.41-5.17,4.89,4.89,0,0,0-4.16-2.12,5,5,0,0,0-3.2,1.17,5.43,5.43,0,0,0-1.88,3.07,6.22,6.22,0,0,0-.22,1.45v3.59a5.76,5.76,0,0,0,1.44,4,4.77,4.77,0,0,0,3.73,1.61,4.89,4.89,0,0,0,4.2-2.08,9.13,9.13,0,0,0,1.5-5.48"/><path class="cls-1" d="M167.48,57.53q0,5.48-3,8.66A8.74,8.74,0,0,1,157.87,69c-2.84,0-4.89-1-6.13-3V77.25H147V54.12q0-3.44-.18-7.06H151l.27,3.41h.09a8.49,8.49,0,0,1,13.59-.84,11.89,11.89,0,0,1,2.54,7.91m-4.87.18a8.9,8.9,0,0,0-1.41-5.17A4.89,4.89,0,0,0,157,50.41a5,5,0,0,0-3.21,1.17A5.45,5.45,0,0,0,152,54.66a6.37,6.37,0,0,0-.23,1.45v3.59a5.76,5.76,0,0,0,1.44,4,4.78,4.78,0,0,0,3.74,1.61,4.88,4.88,0,0,0,4.2-2.08,9.14,9.14,0,0,0,1.51-5.48"/><path class="cls-1" d="M195.1,60.18a8,8,0,0,1-2.65,6.19Q189.55,69,184.34,69a14.18,14.18,0,0,1-7.72-1.86l1.11-4a13.29,13.29,0,0,0,6.9,1.86,6.49,6.49,0,0,0,4.2-1.21,4,4,0,0,0,1.5-3.25,4.16,4.16,0,0,0-1.24-3,11.48,11.48,0,0,0-4.11-2.3q-7.83-2.92-7.83-8.54a7.53,7.53,0,0,1,2.76-6,10.91,10.91,0,0,1,7.32-2.34A14.44,14.44,0,0,1,194,39.72l-1.2,3.89a11.81,11.81,0,0,0-5.72-1.37,5.82,5.82,0,0,0-4,1.24,3.54,3.54,0,0,0-1.2,2.7,3.66,3.66,0,0,0,1.37,2.92,15.58,15.58,0,0,0,4.33,2.29A14.7,14.7,0,0,1,193.28,55a7.55,7.55,0,0,1,1.82,5.17"/><path class="cls-1" d="M210.92,50.63h-5.26V61.07q0,4,2.78,4a8.63,8.63,0,0,0,2.12-.22l.13,3.62A10.87,10.87,0,0,1,207,69a5.74,5.74,0,0,1-4.42-1.73Q201,65.52,201,61.46V50.63h-3.13V47H201V43.11l4.69-1.41V47h5.26Z"/><path class="cls-1" d="M234.61,57.62a11.77,11.77,0,0,1-2.83,8.13A10.08,10.08,0,0,1,223.92,69a9.61,9.61,0,0,1-7.54-3.13A11.42,11.42,0,0,1,213.57,58a11.68,11.68,0,0,1,2.89-8.18,10,10,0,0,1,7.8-3.18,9.83,9.83,0,0,1,7.6,3.14,11.28,11.28,0,0,1,2.74,7.86m-4.95.11a9.65,9.65,0,0,0-1.28-5.07,4.73,4.73,0,0,0-4.29-2.56,4.8,4.8,0,0,0-4.37,2.56,9.76,9.76,0,0,0-1.28,5.16,9.58,9.58,0,0,0,1.28,5.07,4.89,4.89,0,0,0,8.63,0,9.68,9.68,0,0,0,1.32-5.12"/><path class="cls-1" d="M250.13,51.25a8.53,8.53,0,0,0-1.51-.13,4.49,4.49,0,0,0-3.89,1.9,7.14,7.14,0,0,0-1.19,4.25V68.54h-4.77V53.82q0-3.71-.14-6.76h4.16l.18,4.11h.13a7.35,7.35,0,0,1,2.38-3.4,5.76,5.76,0,0,1,3.45-1.15,8.27,8.27,0,0,1,1.19.09Z"/><path class="cls-1" d="M271.48,56.78a11.13,11.13,0,0,1-.17,2.17H257a6.21,6.21,0,0,0,2.08,4.87,7.07,7.07,0,0,0,4.68,1.5,15.78,15.78,0,0,0,5.79-1l.75,3.31a18,18,0,0,1-7.2,1.33A10.45,10.45,0,0,1,255.24,66a10.85,10.85,0,0,1-2.85-7.88A12.29,12.29,0,0,1,255,50a9.14,9.14,0,0,1,7.51-3.45,8,8,0,0,1,7,3.45,11.55,11.55,0,0,1,1.9,6.75m-4.55-1.24a6.48,6.48,0,0,0-.93-3.67,4.17,4.17,0,0,0-3.8-2,4.53,4.53,0,0,0-3.8,1.95A7.15,7.15,0,0,0,257,55.54Z"/><path class="cls-1" d="M107.82,20.4a7.35,7.35,0,0,1-2.37,5.94,9.44,9.44,0,0,1-6.23,1.84A29.16,29.16,0,0,1,95.79,28V13.64a25.6,25.6,0,0,1,4-.3q3.84,0,5.8,1.66a6.75,6.75,0,0,1,2.19,5.4m-2.48.07A5.32,5.32,0,0,0,104,16.55a5.35,5.35,0,0,0-4-1.37,10,10,0,0,0-1.89.15V26.26a12.07,12.07,0,0,0,1.59.06,5.56,5.56,0,0,0,4.16-1.5,6,6,0,0,0,1.47-4.36"/><path class="cls-1" d="M120.26,22.72a5.76,5.76,0,0,1-1.39,4A5,5,0,0,1,115,28.32a4.72,4.72,0,0,1-3.7-1.54,5.61,5.61,0,0,1-1.38-3.89,5.73,5.73,0,0,1,1.42-4,4.93,4.93,0,0,1,3.83-1.56,4.83,4.83,0,0,1,3.74,1.54,5.57,5.57,0,0,1,1.35,3.87m-2.44.05a4.76,4.76,0,0,0-.63-2.49A2.32,2.32,0,0,0,115.09,19a2.35,2.35,0,0,0-2.15,1.25,4.8,4.8,0,0,0-.63,2.53,4.7,4.7,0,0,0,.63,2.49,2.37,2.37,0,0,0,2.13,1.26,2.34,2.34,0,0,0,2.1-1.28,4.69,4.69,0,0,0,.65-2.52"/><path class="cls-1" d="M137.17,17.53l-3.3,10.55h-2.15l-1.37-4.58a33.9,33.9,0,0,1-.85-3.41h0a24.33,24.33,0,0,1-.85,3.41l-1.45,4.58H125l-3.11-10.55h2.41l1.19,5c.29,1.18.53,2.32.72,3.39h0q.26-1.33.87-3.36l1.5-5h1.91L132,22.46c.35,1.2.63,2.36.85,3.48h.07a33.09,33.09,0,0,1,.71-3.48l1.28-4.93h2.3Z"/><path class="cls-1" d="M148.69,28.08h-2.35V22c0-1.87-.7-2.8-2.12-2.8a2.12,2.12,0,0,0-1.69.77,2.71,2.71,0,0,0-.65,1.81v6.28h-2.35V20.54c0-.93,0-1.93-.08-3h2.06l.11,1.63h.07a3.36,3.36,0,0,1,1.22-1.25,4,4,0,0,1,2.12-.59,3.36,3.36,0,0,1,2.46,1,4.64,4.64,0,0,1,1.22,3.5Z"/><rect class="cls-1" x="152.11" y="12.69" width="2.34" height="15.39"/><path class="cls-1" d="M167.6,22.72a5.77,5.77,0,0,1-1.39,4,5,5,0,0,1-3.86,1.61,4.73,4.73,0,0,1-3.71-1.54,5.62,5.62,0,0,1-1.38-3.89,5.73,5.73,0,0,1,1.42-4,4.93,4.93,0,0,1,3.83-1.56,4.82,4.82,0,0,1,3.73,1.54,5.55,5.55,0,0,1,1.35,3.87m-2.43.05a4.74,4.74,0,0,0-.63-2.49A2.32,2.32,0,0,0,162.43,19a2.36,2.36,0,0,0-2.15,1.25,4.82,4.82,0,0,0-.62,2.53,4.72,4.72,0,0,0,.63,2.49,2.37,2.37,0,0,0,2.13,1.26,2.34,2.34,0,0,0,2.1-1.28,4.7,4.7,0,0,0,.66-2.52"/><path class="cls-1" d="M178.3,28.08H176.2L176,26.86H176a3.62,3.62,0,0,1-3.08,1.46,3.19,3.19,0,0,1-2.41-1,3,3,0,0,1-.82-2.15,3.28,3.28,0,0,1,1.62-3,8.37,8.37,0,0,1,4.55-1v-.2q0-2.08-2.19-2.08a4.89,4.89,0,0,0-2.75.78l-.49-1.54a6.79,6.79,0,0,1,3.63-.91c2.76,0,4.15,1.45,4.15,4.36v3.89a15.22,15.22,0,0,0,.15,2.52m-2.43-3.62V22.82Q172,22.76,172,25a1.6,1.6,0,0,0,.45,1.24,1.64,1.64,0,0,0,1.14.41,2.35,2.35,0,0,0,1.44-.49,2,2,0,0,0,.81-1.25Z"/><path class="cls-1" d="M191,28.08h-2.09l-.11-1.7h-.06a3.5,3.5,0,0,1-3.38,1.94,4,4,0,0,1-3.17-1.5,5.81,5.81,0,0,1-1.26-3.89,6.11,6.11,0,0,1,1.37-4.15,4.25,4.25,0,0,1,3.28-1.48,3.19,3.19,0,0,1,3,1.43V12.68h2.34V25.24c0,1,0,2,.09,2.84m-2.43-4.45V21.87a3.5,3.5,0,0,0-.06-.74,2.68,2.68,0,0,0-.86-1.42,2.29,2.29,0,0,0-1.57-.58,2.4,2.4,0,0,0-2.06,1,4.44,4.44,0,0,0-.75,2.67,4.19,4.19,0,0,0,.71,2.54,2.42,2.42,0,0,0,2.05,1,2.24,2.24,0,0,0,1.85-.87,2.89,2.89,0,0,0,.68-1.93"/><path class="cls-1" d="M209.66,22.72a5.77,5.77,0,0,1-1.39,4,5,5,0,0,1-3.86,1.61,4.71,4.71,0,0,1-3.7-1.54,5.61,5.61,0,0,1-1.38-3.89,5.74,5.74,0,0,1,1.42-4,4.94,4.94,0,0,1,3.83-1.56,4.82,4.82,0,0,1,3.73,1.54,5.56,5.56,0,0,1,1.35,3.87m-2.43.05a4.74,4.74,0,0,0-.63-2.49A2.32,2.32,0,0,0,204.5,19a2.35,2.35,0,0,0-2.15,1.25,4.83,4.83,0,0,0-.63,2.53,4.73,4.73,0,0,0,.63,2.49,2.38,2.38,0,0,0,2.13,1.26,2.34,2.34,0,0,0,2.1-1.28,4.71,4.71,0,0,0,.66-2.52"/><path class="cls-1" d="M221.62,28.08h-2.34V22q0-2.8-2.13-2.8a2.11,2.11,0,0,0-1.69.77,2.71,2.71,0,0,0-.65,1.81v6.28h-2.35V20.54c0-.93,0-1.93-.08-3h2.06l.11,1.63h.06a3.45,3.45,0,0,1,1.21-1.25,4,4,0,0,1,2.13-.59,3.36,3.36,0,0,1,2.45,1,4.62,4.62,0,0,1,1.21,3.5Z"/><path class="cls-1" d="M236.07,19.28h-2.58v5.13q0,2,1.37,2a4.14,4.14,0,0,0,1-.11L236,28a5.29,5.29,0,0,1-1.82.26,2.82,2.82,0,0,1-2.17-.85,4.15,4.15,0,0,1-.78-2.85V19.28h-1.54V17.53h1.54V15.59l2.3-.69v2.63h2.58Z"/><path class="cls-1" d="M247.79,28.08h-2.35v-6q0-2.84-2.12-2.85a2.24,2.24,0,0,0-2.24,1.65,3,3,0,0,0-.11.84v6.36h-2.34V12.69H241V19h0a3.55,3.55,0,0,1,3.17-1.71,3.27,3.27,0,0,1,2.41,1,4.81,4.81,0,0,1,1.2,3.54Z"/><path class="cls-1" d="M259.93,22.3a5.75,5.75,0,0,1-.09,1.06h-7a3.08,3.08,0,0,0,1,2.39,3.47,3.47,0,0,0,2.3.74A7.7,7.7,0,0,0,259,26l.37,1.63a8.87,8.87,0,0,1-3.54.65,5.11,5.11,0,0,1-3.85-1.44,5.32,5.32,0,0,1-1.4-3.88,6,6,0,0,1,1.3-4,4.48,4.48,0,0,1,3.69-1.69A3.93,3.93,0,0,1,259,19a5.63,5.63,0,0,1,.94,3.32m-2.24-.61a3.17,3.17,0,0,0-.46-1.8,2.05,2.05,0,0,0-1.87-1,2.23,2.23,0,0,0-1.87,1,3.6,3.6,0,0,0-.7,1.83Z"/></svg>