<svg id="Layer_1" data-name="Layer 1" xmlns="http://www.w3.org/2000/svg" xmlns:xlink="http://www.w3.org/1999/xlink" viewBox="0 0 385.33 112.47"><defs><style>.cls-1,.cls-2,.cls-9{fill:#fff;}.cls-1{stroke:#fff;stroke-miterlimit:10;stroke-width:0.2px;}.cls-3{fill:url(#linear-gradient);}.cls-4{fill:url(#linear-gradient-2);}.cls-5{fill:url(#linear-gradient-3);}.cls-6{fill:url(#linear-gradient-4);}.cls-7{opacity:0.2;}.cls-7,.cls-8,.cls-9{isolation:isolate;}.cls-8{opacity:0.12;}.cls-9{opacity:0.25;}</style><linearGradient id="linear-gradient" x1="64.17" y1="89.98" x2="16.99" y2="42.79" gradientTransform="matrix(1, 0, 0, -1, 0, 114.47)" gradientUnits="userSpaceOnUse"><stop offset="0" stop-color="#00a0ff"/><stop offset="0.01" stop-color="#00a1ff"/><stop offset="0.26" stop-color="#00beff"/><stop offset="0.51" stop-color="#00d2ff"/><stop offset="0.76" stop-color="#00dfff"/><stop offset="1" stop-color="#00e3ff"/></linearGradient><linearGradient id="linear-gradient-2" x1="98.01" y1="58.23" x2="29.98" y2="58.23" gradientTransform="matrix(1, 0, 0, -1, 0, 114.47)" gradientUnits="userSpaceOnUse"><stop offset="0" stop-color="#ffe000"/><stop offset="0.41" stop-color="#ffbd00"/><stop offset="0.78" stop-color="orange"/><stop offset="1" stop-color="#ff9c00"/></linearGradient><linearGradient id="linear-gradient-3" x1="72.68" y1="51.78" x2="8.7" y2="-12.21" gradientTransform="matrix(1, 0, 0, -1, 0, 114.47)" gradientUnits="userSpaceOnUse"><stop offset="0" stop-color="#ff3a44"/><stop offset="1" stop-color="#c31162"/></linearGradient><linearGradient id="linear-gradient-4" x1="23.4" y1="113.97" x2="51.97" y2="85.4" gradientTransform="matrix(1, 0, 0, -1, 0, 114.47)" gradientUnits="userSpaceOnUse"><stop offset="0" stop-color="#32a071"/><stop offset="0.07" stop-color="#2da771"/><stop offset="0.48" stop-color="#15cf74"/><stop offset="0.8" stop-color="#06e775"/><stop offset="1" stop-color="#00f076"/></linearGradient></defs><title>Get-it-on-Google-play</title><g id="_Group_" data-name="&lt;Group&gt;"><g id="_Group_2" data-name="&lt;Group&gt;"><rect x="2.88" width="379.57" height="112.47" rx="14.06" ry="14.06"/></g><g id="_Group_3" data-name="&lt;Group&gt;"><path id="_Compound_Path_" data-name="&lt;Compound Path&gt;" class="cls-1" d="M136.2,28.8a7.61,7.61,0,0,1-2.1,5.63,8.18,8.18,0,0,1-6.2,2.5,8.69,8.69,0,0,1-8.76-8.81,8.69,8.69,0,0,1,8.76-8.81,8.7,8.7,0,0,1,3.46.71A7,7,0,0,1,134,21.9l-1.48,1.48a5.7,5.7,0,0,0-4.62-2,6.52,6.52,0,0,0-6.55,6.74A6.63,6.63,0,0,0,132.62,33,5.31,5.31,0,0,0,134,29.55h-6.13v-2h8.17A7.15,7.15,0,0,1,136.2,28.8Z"/><path id="_Compound_Path_2" data-name="&lt;Compound Path&gt;" class="cls-1" d="M149.16,21.75h-7.68V27.1h6.93v2h-6.93v5.35h7.68v2.07h-9.85V19.68h9.85Z"/><path id="_Compound_Path_3" data-name="&lt;Compound Path&gt;" class="cls-1" d="M158.3,36.55h-2.17V21.75h-4.71V19.68H163v2.07H158.3Z"/><path id="_Compound_Path_4" data-name="&lt;Compound Path&gt;" class="cls-1" d="M171.4,36.55V19.68h2.17V36.55Z"/><path id="_Compound_Path_5" data-name="&lt;Compound Path&gt;" class="cls-1" d="M183.19,36.55H181V21.75h-4.71V19.68H187.9v2.07h-4.71Z"/><path id="_Compound_Path_6" data-name="&lt;Compound Path&gt;" class="cls-1" d="M209.84,34.37a8.76,8.76,0,0,1-12.37,0A8.62,8.62,0,0,1,195,28.12a8.62,8.62,0,0,1,2.48-6.25,8.73,8.73,0,0,1,12.36,0,8.63,8.63,0,0,1,2.5,6.24A8.64,8.64,0,0,1,209.84,34.37ZM199.08,33a6.49,6.49,0,0,0,9.17,0,6.6,6.6,0,0,0,1.88-4.84,6.6,6.6,0,0,0-1.88-4.84,6.49,6.49,0,0,0-9.17,0,6.61,6.61,0,0,0-1.87,4.84A6.61,6.61,0,0,0,199.08,33Z"/><path id="_Compound_Path_7" data-name="&lt;Compound Path&gt;" class="cls-1" d="M215.37,36.55V19.68H218l8.2,13.12h.09l-.09-3.25V19.68h2.17V36.55h-2.26l-8.58-13.76h-.09l.09,3.25V36.55Z"/></g><path id="_Compound_Path_8" data-name="&lt;Compound Path&gt;" class="cls-2" d="M194.45,61.16a12,12,0,1,0,12,12A11.79,11.79,0,0,0,194.45,61.16Zm0,19.21a7.27,7.27,0,1,1,6.75-7.25A6.92,6.92,0,0,1,194.45,80.36ZM168.27,61.16a12,12,0,1,0,12,12A11.79,11.79,0,0,0,168.27,61.16Zm0,19.21A7.27,7.27,0,1,1,175,73.12,6.92,6.92,0,0,1,168.27,80.36ZM137.12,64.83V69.9h12.14a10.59,10.59,0,0,1-2.76,6.39A12.43,12.43,0,0,1,137.12,80a13.5,13.5,0,0,1,0-27,12.94,12.94,0,0,1,9.15,3.62L149.85,53a17.7,17.7,0,0,0-12.73-5.12,18.57,18.57,0,1,0,0,37.14c5.53,0,9.69-1.81,13-5.21s4.39-8.06,4.39-11.87a16.51,16.51,0,0,0-.27-3.17Zm127.39,3.94c-1-2.67-4-7.61-10.24-7.61S243,66,243,73.12a11.7,11.7,0,0,0,11.87,12,11.89,11.89,0,0,0,10-5.3l-4.08-2.72a6.83,6.83,0,0,1-5.89,3.31,6.08,6.08,0,0,1-5.8-3.62l16-6.61Zm-16.31,4a6.56,6.56,0,0,1,6.25-7,4.63,4.63,0,0,1,4.44,2.54Zm-13,11.6h5.25V49.2H235.2ZM226.6,63.83h-.18a8.29,8.29,0,0,0-6.3-2.67c-6,0-11.46,5.25-11.46,12a11.84,11.84,0,0,0,11.46,11.91,8.15,8.15,0,0,0,6.3-2.72h.18v1.72c0,4.58-2.45,7-6.39,7a6.62,6.62,0,0,1-6-4.26l-4.58,1.9a11.4,11.4,0,0,0,10.6,7.07c6.16,0,11.37-3.62,11.37-12.46V61.88h-5Zm-6,16.53c-3.62,0-6.66-3-6.66-7.2s3-7.29,6.66-7.29S227,68.95,227,73.16,224.15,80.36,220.57,80.36ZM289.12,49.2H276.55V84.35h5.25V71h7.33c5.82,0,11.53-4.21,11.53-10.92S294.94,49.2,289.12,49.2Zm.14,16.94H281.8v-12h7.46a6,6,0,1,1,0,12Zm32.42-5c-3.8,0-7.73,1.67-9.36,5.38L317,68.42a5,5,0,0,1,4.79-2.58c2.71,0,5.47,1.63,5.52,4.52v.36a11.61,11.61,0,0,0-5.47-1.36c-5,0-10.13,2.76-10.13,7.91,0,4.7,4.11,7.73,8.73,7.73a7.4,7.4,0,0,0,6.69-3.44h.18v2.71h5.06V70.82C332.35,64.58,327.7,61.09,321.68,61.09ZM321,80.36c-1.72,0-4.12-.86-4.12-3,0-2.71,3-3.75,5.56-3.75a9.35,9.35,0,0,1,4.79,1.18A6.36,6.36,0,0,1,321,80.36Zm29.76-18.5-6,15.24h-.18l-6.24-15.24h-5.65l9.36,21.3L336.74,95h5.47l14.43-33.15ZM303.55,84.35h5.25V49.2h-5.25Z"/><g id="_Group_4" data-name="&lt;Group&gt;"><path id="_Path_" data-name="&lt;Path&gt;" class="cls-3" d="M32.22,21.19a5.63,5.63,0,0,0-1.3,4V87.33a5.63,5.63,0,0,0,1.3,4l.21.2L67.26,56.65v-.82L32.43,21Z"/><path id="_Path_2" data-name="&lt;Path&gt;" class="cls-4" d="M78.87,68.26,67.26,56.65v-.82L78.88,44.21l.26.15,13.76,7.82c3.93,2.23,3.93,5.89,0,8.12L79.14,68.11Z"/><path id="_Path_3" data-name="&lt;Path&gt;" class="cls-5" d="M79.14,68.11,67.26,56.24l-35,35c1.3,1.37,3.43,1.54,5.84.17L79.14,68.11"/><path id="_Path_4" data-name="&lt;Path&gt;" class="cls-6" d="M79.14,44.36,38.06,21c-2.41-1.37-4.55-1.2-5.84.17l35,35Z"/><g id="_Group_5" data-name="&lt;Group&gt;"><path id="_Path_5" data-name="&lt;Path&gt;" class="cls-7" d="M78.88,67.85,38.06,91c-2.28,1.3-4.32,1.21-5.63,0h0l-.21.21h0l.21.2h0c1.31,1.18,3.35,1.27,5.63,0L79.14,68.11Z"/><path id="_Path_6" data-name="&lt;Path&gt;" class="cls-8" d="M32.22,90.87a5.63,5.63,0,0,1-1.3-4v.41a5.63,5.63,0,0,0,1.3,4l.21-.21Z"/></g><path id="_Path_7" data-name="&lt;Path&gt;" class="cls-8" d="M92.89,59.88l-14,8,.26.26L92.89,60.3c2-1.12,2.95-2.59,2.95-4.06h0A5.24,5.24,0,0,1,92.89,59.88Z"/><path id="_Path_8" data-name="&lt;Path&gt;" class="cls-9" d="M38.06,21.43,92.89,52.59a5.23,5.23,0,0,1,2.95,3.65h0c0-1.47-1-2.94-2.95-4.06L38.06,21c-3.93-2.23-7.14-.38-7.14,4.12v.41C30.92,21.06,34.13,19.2,38.06,21.43Z"/></g></g></svg>